<?xml version="1.0" encoding="utf-8"?>
<!-- Generator: Adobe Illustrator 17.1.0, SVG Export Plug-In . SVG Version: 6.00 Build 0)  -->
<!DOCTYPE svg PUBLIC "-//W3C//DTD SVG 1.1//EN" "http://www.w3.org/Graphics/SVG/1.1/DTD/svg11.dtd">
<svg version="1.1" id="Layer_1" xmlns="http://www.w3.org/2000/svg" xmlns:xlink="http://www.w3.org/1999/xlink" x="0px" y="0px"
	 viewBox="0 0 24 24" enable-background="new 0 0 24 24" xml:space="preserve">
<path fill="none" stroke="#000000" stroke-width="2" stroke-linejoin="round" stroke-miterlimit="10" d="M13.431,6.954
	C12.84,6.364,9.347,2.87,8.756,2.28c-1.781-1.781-4.668-1.781-6.449,0c-1.781,1.781-1.781,4.668,0,6.449
	c0.412,0.412,3.366,3.366,4.693,4.693"/>
<path fill="none" stroke="#000000" stroke-width="2" stroke-linejoin="round" stroke-miterlimit="10" d="M10.478,16.899
	c0.59,0.59,4.119,4.119,4.709,4.709c1.781,1.781,4.668,1.781,6.449,0c1.781-1.781,1.781-4.668,0-6.449
	c-0.409-0.409-3.402-3.402-4.728-4.728"/>
<polygon fill="#333333" points="22.464,0.038 17.683,5.655 18.261,6.233 23.878,1.452 "/>
<polygon fill="#333333" points="16.608,0.31 16.007,5.147 16.536,5.256 17.902,0.577 "/>
<polygon fill="#333333" points="0.038,22.464 5.655,17.683 6.233,18.261 1.452,23.878 "/>
<polygon fill="#333333" points="0.31,16.608 5.147,16.007 5.256,16.536 0.577,17.902 "/>
</svg>
