<?xml version="1.0" encoding="utf-8"?>
<!-- Generator: Adobe Illustrator 16.0.0, SVG Export Plug-In . SVG Version: 6.00 Build 0)  -->
<!DOCTYPE svg PUBLIC "-//W3C//DTD SVG 1.1//EN" "http://www.w3.org/Graphics/SVG/1.1/DTD/svg11.dtd">
<svg version="1.1" id="Layer_10" xmlns="http://www.w3.org/2000/svg" xmlns:xlink="http://www.w3.org/1999/xlink" x="0px" y="0px"
	 width="100px" height="100px" viewBox="0 0 100 100" enable-background="new 0 0 100 100" xml:space="preserve">
<g>
	<path d="M21.835,29.592c0.157-0.077,0.31-0.16,0.458-0.243c0.075,0.099,0.154,0.194,0.246,0.285l8.661,8.663
		c0.542-0.636,1.34-1.036,2.205-1.036c0.28,0,0.559,0.04,0.827,0.12l1.08,0.321l0.672-2.261l-9.626-9.627
		c-0.153-0.151-0.317-0.278-0.494-0.386l0.022-0.1c0.023-0.091,0.053-0.16,0.081-0.239c0.022-0.059,0.045-0.121,0.067-0.186
		c0.028-0.063,0.056-0.13,0.084-0.2c0.048-0.116,0.099-0.242,0.164-0.37l0.181-0.367l0.206-0.364
		c0.087-0.167,0.185-0.312,0.297-0.478c0.06-0.088,0.12-0.179,0.181-0.272c0.054-0.072,0.111-0.146,0.167-0.222
		c0.14-0.185,0.271-0.361,0.413-0.513l0.099-0.109c0.188-0.205,0.376-0.417,0.595-0.598c0.069-0.062,0.122-0.11,0.177-0.159
		c0.074-0.069,0.149-0.139,0.229-0.202l0.422-0.307c0.014-0.008,0.024-0.017,0.033-0.026c0.169-0.135,0.372-0.249,0.588-0.37
		c0.087-0.047,0.171-0.094,0.256-0.145c0.181-0.116,0.368-0.191,0.567-0.271c0.1-0.042,0.198-0.082,0.298-0.125
		c0.058-0.023,0.117-0.049,0.175-0.075c0.063-0.026,0.125-0.057,0.188-0.073l0.464-0.13c0.092-0.023,0.199-0.054,0.307-0.085
		c0.151-0.044,0.297-0.086,0.395-0.099l1.242-0.182c0.181-0.026,0.341-0.11,0.464-0.232c0.135-0.136,0.225-0.32,0.238-0.523
		c0.026-0.386-0.219-0.739-0.59-0.848L32.65,17.21c-0.213-0.064-0.439-0.097-0.657-0.129c-0.097-0.015-0.196-0.029-0.301-0.047
		l-0.536-0.083c-0.168-0.027-0.326-0.031-0.466-0.034c-0.055-0.002-0.111-0.003-0.169-0.006c-0.14-0.002-0.242-0.007-0.347-0.012
		c-0.312-0.013-0.665-0.027-1.04,0.022l-0.238,0.019c-0.359,0.03-0.77,0.063-1.183,0.162l-0.662,0.134
		c-0.204,0.05-0.374,0.103-0.545,0.156l-0.209,0.064c-0.479,0.133-0.932,0.323-1.37,0.508l-0.06,0.025
		c-0.376,0.156-0.717,0.338-1.047,0.514l-0.274,0.146c-0.019,0.009-0.034,0.02-0.053,0.03c-0.106,0.066-0.214,0.131-0.319,0.195
		c-0.286,0.173-0.583,0.352-0.858,0.556l-0.458,0.327c-0.01,0.008-0.055,0.041-0.066,0.05l-0.453,0.362
		c-0.122,0.094-0.235,0.19-0.343,0.284c-0.816,0.136-1.6,0.515-2.229,1.145l-0.97,0.969c-0.447,0.447-0.866,1.074-1.211,1.777
		c-1.521-0.292-3.585,1.954-6.663,5.031l6.883,6.88C19.166,33.894,22.129,31.113,21.835,29.592z"/>
	<path d="M75.809,29.165l4.337,0.839l4.414-5.573c0.805-1.011,2.146-1.474,3.397-1.178v-2.4h-6.518v5.215h-7.021L75.809,29.165z"/>
	<polygon points="36.457,30.573 37.795,26.067 31.952,26.067 	"/>
	<path d="M87.957,54.094V37.389c-0.117,0.161-0.234,0.323-0.359,0.48c-1.814,2.291-4.221,3.94-6.919,4.818h0.761v11.406H66.161
		h-2.186l8.184-11.158c0.148-0.19,0.286-0.386,0.413-0.587c4.571,1.146,9.602-0.38,12.713-4.307
		c2.271-2.866,3.154-6.567,2.42-10.155c-0.081-0.407-0.394-0.729-0.796-0.826c-0.404-0.095-0.827,0.051-1.086,0.375l-5.275,6.66
		l-6.857-1.328l-2.864-6.373l5.277-6.66c0.259-0.325,0.303-0.771,0.118-1.141c-0.187-0.372-0.571-0.601-0.985-0.589
		c-3.662,0.108-7.063,1.813-9.334,4.679c-3.108,3.925-3.444,9.168-1.288,13.355c-0.163,0.172-0.323,0.354-0.478,0.548L53.548,49.184
		l2.563,2.564c0.663,0.663,1.128,1.468,1.377,2.346h-1.144c-0.208-0.576-0.539-1.116-1.001-1.578l-14.578-14.58l-0.379,1.271
		l0.988,0.294c0.743,0.22,1.356,0.717,1.725,1.398c0.369,0.681,0.451,1.466,0.23,2.209c-0.119,0.398-0.323,0.765-0.593,1.075
		c0.076,0.681,0.018,1.371-0.183,2.035l-1.309,4.408l3.467,3.466H43.6h-2.426h-2.435l2.574-8.667
		c0.221-0.738,0.202-1.491-0.005-2.177c0.363-0.185,0.654-0.513,0.78-0.935c0.241-0.817-0.224-1.677-1.042-1.919l-2.288-0.681
		l6.219-20.934l0.196,0.058l1.611-3.119l0.632-4.865l-2.685-0.797l-2.09,4.433l-0.336,3.498l0.199,0.059l-6.22,20.935l-2.381-0.707
		c-0.815-0.243-1.677,0.223-1.919,1.04c-0.117,0.395-0.069,0.799,0.104,1.14c-0.573,0.465-1.019,1.103-1.245,1.864L27.35,54.094
		h-2.328h-0.94V42.688h4.328l0.774-2.608c0.195-0.653,0.328-0.833,0.717-1.378l-6.988-7.159c-0.957,1.318-1.904,2.685-3.378,4.148
		l-1.97,1.968v16.435h-2.12v22.813c0,7.199,5.838,13.036,13.038,13.036h48.559c7.2,0,13.035-5.836,13.035-13.036V54.094H87.957z
		 M36.789,45.99c0.257-0.868,1.169-1.361,2.037-1.104c0.865,0.257,1.36,1.169,1.102,2.037L37.8,54.094h-3.418L36.789,45.99z
		 M31.509,44.422c0.257-0.867,1.169-1.361,2.037-1.104c0.867,0.257,1.361,1.169,1.103,2.036l-2.596,8.739h-3.417L31.509,44.422z"/>
	<path d="M45.246,26.067l-2.522,8.489l8.133,8.132h4.36l7.251-8.625c-0.996-2.575-1.221-5.348-0.728-7.996H45.246z"/>
</g>
</svg>
